<?xml version='1.0' encoding='UTF-8'?>
<svg width="33mm" height="33mm" version="1.1" viewBox="0 0 33 33" fill_color="#1D1D1F" back_color="none" xmlns="http://www.w3.org/2000/svg"><path d="M0,0H1V1H0zM1,0H2V1H1zM2,0H3V1H2zM3,0H4V1H3zM4,0H5V1H4zM5,0H6V1H5zM6,0H7V1H6zM8,0H9V1H8zM9,0H10V1H9zM11,0H12V1H11zM12,0H13V1H12zM14,0H15V1H14zM16,0H17V1H16zM17,0H18V1H17zM18,0H19V1H18zM19,0H20V1H19zM20,0H21V1H20zM21,0H22V1H21zM22,0H23V1H22zM24,0H25V1H24zM26,0H27V1H26zM27,0H28V1H27zM28,0H29V1H28zM29,0H30V1H29zM30,0H31V1H30zM31,0H32V1H31zM32,0H33V1H32zM0,1H1V2H0zM6,1H7V2H6zM9,1H10V2H9zM11,1H12V2H11zM12,1H13V2H12zM19,1H20V2H19zM24,1H25V2H24zM26,1H27V2H26zM32,1H33V2H32zM0,2H1V3H0zM2,2H3V3H2zM3,2H4V3H3zM4,2H5V3H4zM6,2H7V3H6zM8,2H9V3H8zM10,2H11V3H10zM11,2H12V3H11zM14,2H15V3H14zM15,2H16V3H15zM20,2H21V3H20zM21,2H22V3H21zM22,2H23V3H22zM23,2H24V3H23zM24,2H25V3H24zM26,2H27V3H26zM28,2H29V3H28zM29,2H30V3H29zM30,2H31V3H30zM32,2H33V3H32zM0,3H1V4H0zM2,3H3V4H2zM3,3H4V4H3zM4,3H5V4H4zM6,3H7V4H6zM13,3H14V4H13zM15,3H16V4H15zM16,3H17V4H16zM19,3H20V4H19zM21,3H22V4H21zM23,3H24V4H23zM26,3H27V4H26zM28,3H29V4H28zM29,3H30V4H29zM30,3H31V4H30zM32,3H33V4H32zM0,4H1V5H0zM2,4H3V5H2zM3,4H4V5H3zM4,4H5V5H4zM6,4H7V5H6zM8,4H9V5H8zM10,4H11V5H10zM12,4H13V5H12zM15,4H16V5H15zM16,4H17V5H16zM17,4H18V5H17zM24,4H25V5H24zM26,4H27V5H26zM28,4H29V5H28zM29,4H30V5H29zM30,4H31V5H30zM32,4H33V5H32zM0,5H1V6H0zM6,5H7V6H6zM9,5H10V6H9zM13,5H14V6H13zM14,5H15V6H14zM16,5H17V6H16zM17,5H18V6H17zM18,5H19V6H18zM19,5H20V6H19zM20,5H21V6H20zM26,5H27V6H26zM32,5H33V6H32zM0,6H1V7H0zM1,6H2V7H1zM2,6H3V7H2zM3,6H4V7H3zM4,6H5V7H4zM5,6H6V7H5zM6,6H7V7H6zM8,6H9V7H8zM10,6H11V7H10zM12,6H13V7H12zM14,6H15V7H14zM16,6H17V7H16zM18,6H19V7H18zM20,6H21V7H20zM22,6H23V7H22zM24,6H25V7H24zM26,6H27V7H26zM27,6H28V7H27zM28,6H29V7H28zM29,6H30V7H29zM30,6H31V7H30zM31,6H32V7H31zM32,6H33V7H32zM8,7H9V8H8zM10,7H11V8H10zM13,7H14V8H13zM16,7H17V8H16zM20,7H21V8H20zM22,7H23V8H22zM24,7H25V8H24zM5,8H6V9H5zM6,8H7V9H6zM11,8H12V9H11zM13,8H14V9H13zM22,8H23V9H22zM24,8H25V9H24zM26,8H27V9H26zM28,8H29V9H28zM30,8H31V9H30zM32,8H33V9H32zM3,9H4V10H3zM4,9H5V10H4zM5,9H6V10H5zM8,9H9V10H8zM9,9H10V10H9zM11,9H12V10H11zM12,9H13V10H12zM13,9H14V10H13zM14,9H15V10H14zM16,9H17V10H16zM18,9H19V10H18zM19,9H20V10H19zM20,9H21V10H20zM21,9H22V10H21zM22,9H23V10H22zM23,9H24V10H23zM25,9H26V10H25zM27,9H28V10H27zM28,9H29V10H28zM29,9H30V10H29zM30,9H31V10H30zM0,10H1V11H0zM1,10H2V11H1zM4,10H5V11H4zM5,10H6V11H5zM6,10H7V11H6zM7,10H8V11H7zM9,10H10V11H9zM11,10H12V11H11zM12,10H13V11H12zM14,10H15V11H14zM19,10H20V11H19zM22,10H23V11H22zM26,10H27V11H26zM27,10H28V11H27zM30,10H31V11H30zM31,10H32V11H31zM1,11H2V12H1zM3,11H4V12H3zM7,11H8V12H7zM11,11H12V12H11zM13,11H14V12H13zM16,11H17V12H16zM18,11H19V12H18zM21,11H22V12H21zM23,11H24V12H23zM25,11H26V12H25zM27,11H28V12H27zM29,11H30V12H29zM30,11H31V12H30zM31,11H32V12H31zM1,12H2V13H1zM2,12H3V13H2zM3,12H4V13H3zM5,12H6V13H5zM6,12H7V13H6zM7,12H8V13H7zM8,12H9V13H8zM9,12H10V13H9zM10,12H11V13H10zM11,12H12V13H11zM14,12H15V13H14zM17,12H18V13H17zM18,12H19V13H18zM21,12H22V13H21zM23,12H24V13H23zM24,12H25V13H24zM26,12H27V13H26zM27,12H28V13H27zM28,12H29V13H28zM0,13H1V14H0zM1,13H2V14H1zM2,13H3V14H2zM3,13H4V14H3zM4,13H5V14H4zM7,13H8V14H7zM9,13H10V14H9zM10,13H11V14H10zM11,13H12V14H11zM12,13H13V14H12zM13,13H14V14H13zM15,13H16V14H15zM20,13H21V14H20zM21,13H22V14H21zM23,13H24V14H23zM26,13H27V14H26zM27,13H28V14H27zM28,13H29V14H28zM32,13H33V14H32zM1,14H2V15H1zM2,14H3V15H2zM3,14H4V15H3zM5,14H6V15H5zM6,14H7V15H6zM9,14H10V15H9zM10,14H11V15H10zM12,14H13V15H12zM15,14H16V15H15zM16,14H17V15H16zM19,14H20V15H19zM22,14H23V15H22zM25,14H26V15H25zM27,14H28V15H27zM28,14H29V15H28zM29,14H30V15H29zM30,14H31V15H30zM31,14H32V15H31zM0,15H1V16H0zM4,15H5V16H4zM7,15H8V16H7zM8,15H9V16H8zM9,15H10V16H9zM14,15H15V16H14zM15,15H16V16H15zM16,15H17V16H16zM19,15H20V16H19zM20,15H21V16H20zM24,15H25V16H24zM26,15H27V16H26zM27,15H28V16H27zM29,15H30V16H29zM30,15H31V16H30zM32,15H33V16H32zM0,16H1V17H0zM3,16H4V17H3zM4,16H5V17H4zM6,16H7V17H6zM7,16H8V17H7zM9,16H10V17H9zM14,16H15V17H14zM17,16H18V17H17zM23,16H24V17H23zM25,16H26V17H25zM28,16H29V17H28zM31,16H32V17H31zM32,16H33V17H32zM1,17H2V18H1zM3,17H4V18H3zM4,17H5V18H4zM5,17H6V18H5zM8,17H9V18H8zM9,17H10V18H9zM11,17H12V18H11zM12,17H13V18H12zM13,17H14V18H13zM15,17H16V18H15zM17,17H18V18H17zM19,17H20V18H19zM20,17H21V18H20zM21,17H22V18H21zM23,17H24V18H23zM24,17H25V18H24zM26,17H27V18H26zM27,17H28V18H27zM32,17H33V18H32zM0,18H1V19H0zM2,18H3V19H2zM3,18H4V19H3zM4,18H5V19H4zM6,18H7V19H6zM7,18H8V19H7zM8,18H9V19H8zM9,18H10V19H9zM10,18H11V19H10zM11,18H12V19H11zM14,18H15V19H14zM16,18H17V19H16zM23,18H24V19H23zM25,18H26V19H25zM26,18H27V19H26zM28,18H29V19H28zM29,18H30V19H29zM30,18H31V19H30zM32,18H33V19H32zM1,19H2V20H1zM2,19H3V20H2zM8,19H9V20H8zM9,19H10V20H9zM11,19H12V20H11zM12,19H13V20H12zM14,19H15V20H14zM15,19H16V20H15zM17,19H18V20H17zM18,19H19V20H18zM23,19H24V20H23zM24,19H25V20H24zM25,19H26V20H25zM29,19H30V20H29zM30,19H31V20H30zM32,19H33V20H32zM4,20H5V21H4zM6,20H7V21H6zM7,20H8V21H7zM8,20H9V21H8zM9,20H10V21H9zM10,20H11V21H10zM11,20H12V21H11zM12,20H13V21H12zM14,20H15V21H14zM16,20H17V21H16zM19,20H20V21H19zM20,20H21V21H20zM22,20H23V21H22zM24,20H25V21H24zM27,20H28V21H27zM28,20H29V21H28zM29,20H30V21H29zM31,20H32V21H31zM32,20H33V21H32zM0,21H1V22H0zM1,21H2V22H1zM3,21H4V22H3zM7,21H8V22H7zM10,21H11V22H10zM11,21H12V22H11zM12,21H13V22H12zM15,21H16V22H15zM16,21H17V22H16zM18,21H19V22H18zM19,21H20V22H19zM25,21H26V22H25zM26,21H27V22H26zM27,21H28V22H27zM28,21H29V22H28zM29,21H30V22H29zM30,21H31V22H30zM31,21H32V22H31zM0,22H1V23H0zM2,22H3V23H2zM6,22H7V23H6zM8,22H9V23H8zM11,22H12V23H11zM12,22H13V23H12zM13,22H14V23H13zM19,22H20V23H19zM23,22H24V23H23zM24,22H25V23H24zM27,22H28V23H27zM28,22H29V23H28zM29,22H30V23H29zM30,22H31V23H30zM31,22H32V23H31zM0,23H1V24H0zM3,23H4V24H3zM8,23H9V24H8zM9,23H10V24H9zM12,23H13V24H12zM13,23H14V24H13zM14,23H15V24H14zM15,23H16V24H15zM16,23H17V24H16zM18,23H19V24H18zM19,23H20V24H19zM22,23H23V24H22zM23,23H24V24H23zM29,23H30V24H29zM30,23H31V24H30zM31,23H32V24H31zM32,23H33V24H32zM0,24H1V25H0zM1,24H2V25H1zM2,24H3V25H2zM3,24H4V25H3zM4,24H5V25H4zM5,24H6V25H5zM6,24H7V25H6zM8,24H9V25H8zM9,24H10V25H9zM10,24H11V25H10zM11,24H12V25H11zM13,24H14V25H13zM16,24H17V25H16zM17,24H18V25H17zM18,24H19V25H18zM19,24H20V25H19zM22,24H23V25H22zM24,24H25V25H24zM25,24H26V25H25zM26,24H27V25H26zM27,24H28V25H27zM28,24H29V25H28zM31,24H32V25H31zM32,24H33V25H32zM8,25H9V26H8zM20,25H21V26H20zM24,25H25V26H24zM28,25H29V26H28zM30,25H31V26H30zM32,25H33V26H32zM0,26H1V27H0zM1,26H2V27H1zM2,26H3V27H2zM3,26H4V27H3zM4,26H5V27H4zM5,26H6V27H5zM6,26H7V27H6zM9,26H10V27H9zM10,26H11V27H10zM11,26H12V27H11zM12,26H13V27H12zM14,26H15V27H14zM16,26H17V27H16zM17,26H18V27H17zM21,26H22V27H21zM23,26H24V27H23zM24,26H25V27H24zM26,26H27V27H26zM28,26H29V27H28zM31,26H32V27H31zM0,27H1V28H0zM6,27H7V28H6zM8,27H9V28H8zM9,27H10V28H9zM10,27H11V28H10zM12,27H13V28H12zM16,27H17V28H16zM17,27H18V28H17zM18,27H19V28H18zM23,27H24V28H23zM24,27H25V28H24zM28,27H29V28H28zM29,27H30V28H29zM30,27H31V28H30zM31,27H32V28H31zM0,28H1V29H0zM2,28H3V29H2zM3,28H4V29H3zM4,28H5V29H4zM6,28H7V29H6zM11,28H12V29H11zM13,28H14V29H13zM14,28H15V29H14zM15,28H16V29H15zM16,28H17V29H16zM20,28H21V29H20zM21,28H22V29H21zM24,28H25V29H24zM25,28H26V29H25zM26,28H27V29H26zM27,28H28V29H27zM28,28H29V29H28zM31,28H32V29H31zM32,28H33V29H32zM0,29H1V30H0zM2,29H3V30H2zM3,29H4V30H3zM4,29H5V30H4zM6,29H7V30H6zM10,29H11V30H10zM11,29H12V30H11zM13,29H14V30H13zM14,29H15V30H14zM16,29H17V30H16zM18,29H19V30H18zM19,29H20V30H19zM21,29H22V30H21zM22,29H23V30H22zM23,29H24V30H23zM24,29H25V30H24zM25,29H26V30H25zM27,29H28V30H27zM28,29H29V30H28zM29,29H30V30H29zM31,29H32V30H31zM0,30H1V31H0zM2,30H3V31H2zM3,30H4V31H3zM4,30H5V31H4zM6,30H7V31H6zM9,30H10V31H9zM12,30H13V31H12zM13,30H14V31H13zM14,30H15V31H14zM16,30H17V31H16zM17,30H18V31H17zM19,30H20V31H19zM20,30H21V31H20zM22,30H23V31H22zM24,30H25V31H24zM28,30H29V31H28zM31,30H32V31H31zM32,30H33V31H32zM0,31H1V32H0zM6,31H7V32H6zM9,31H10V32H9zM10,31H11V32H10zM11,31H12V32H11zM13,31H14V32H13zM14,31H15V32H14zM16,31H17V32H16zM18,31H19V32H18zM22,31H23V32H22zM25,31H26V32H25zM30,31H31V32H30zM0,32H1V33H0zM1,32H2V33H1zM2,32H3V33H2zM3,32H4V33H3zM4,32H5V33H4zM5,32H6V33H5zM6,32H7V33H6zM9,32H10V33H9zM10,32H11V33H10zM11,32H12V33H11zM12,32H13V33H12zM13,32H14V33H13zM14,32H15V33H14zM18,32H19V33H18zM22,32H23V33H22zM23,32H24V33H23zM24,32H25V33H24zM30,32H31V33H30zM31,32H32V33H31z" id="qr-path" fill="#000000" fill-opacity="1" fill-rule="nonzero" stroke="none"/></svg>